HIERARCHY
ROOT hip
{
  OFFSET 0 90.174 2.4664
  CHANNELS 6 Xposition Yposition Zposition Zrotation Xrotation Yrotation
  JOINT abdomen
  {
    OFFSET 0 -1.186 -1.5018
    CHANNELS 6 Xposition Yposition Zposition Zrotation Xrotation Yrotation
    JOINT abdomen2
    {
      OFFSET 0 9.964 0.2134
      CHANNELS 6 Xposition Yposition Zposition Zrotation Xrotation Yrotation
      JOINT chest
      {
        OFFSET 0 13.134 -3.2573
        CHANNELS 6 Xposition Yposition Zposition Zrotation Xrotation Yrotation
        JOINT neck
        {
          OFFSET 0 20.686 -1.6905
          CHANNELS 6 Xposition Yposition Zposition Zrotation Xrotation Yrotation
          JOINT head
          {
            OFFSET 0 7.238 -0.1237
            CHANNELS 6 Xposition Yposition Zposition Zrotation Xrotation Yrotation
            End Site
            {
              OFFSET 0 0 0
            }
          }
        }
        JOINT lCollar
        {
          OFFSET 1.7069 20.075 5.0056
          CHANNELS 6 Xposition Yposition Zposition Zrotation Xrotation Yrotation
          JOINT lShldr
          {
            OFFSET 13.6458 -0.047 -4.849
            CHANNELS 6 Xposition Yposition Zposition Zrotation Xrotation Yrotation
            JOINT lForeArm
            {
              OFFSET 28.3255 -0.9759 2.2888
              CHANNELS 6 Xposition Yposition Zposition Zrotation Xrotation Yrotation
              JOINT lHand
              {
                OFFSET 22.1583 -0.53 10.8316
                CHANNELS 6 Xposition Yposition Zposition Zrotation Xrotation Yrotation
                JOINT lThumb1
                {
                  OFFSET 0.786 0.112 2.5817
                  CHANNELS 6 Xposition Yposition Zposition Zrotation Xrotation Yrotation
                  JOINT lThumb2
                  {
                    OFFSET 0.3601 -0.878 4.2331
                    CHANNELS 6 Xposition Yposition Zposition Zrotation Xrotation Yrotation
                    JOINT lThumb2_End
                    {
                      OFFSET 1.8127 -1.216 2.2227
                      CHANNELS 6 Xposition Yposition Zposition Zrotation Xrotation Yrotation
                      End Site
                      {
                        OFFSET 0.0181 -0.0122 0.0222
                      }
                    }
                  }
                }
                JOINT lCarpal1
                {
                  OFFSET 0.9571 1.114 1.7695
                  CHANNELS 6 Xposition Yposition Zposition Zrotation Xrotation Yrotation
                  JOINT lIndex1
                  {
                    OFFSET 4.1246 0.487 4.1451
                    CHANNELS 6 Xposition Yposition Zposition Zrotation Xrotation Yrotation
                    JOINT lIndex2
                    {
                      OFFSET 3.4052 -1.454 2.7682
                      CHANNELS 6 Xposition Yposition Zposition Zrotation Xrotation Yrotation
                      JOINT lIndex2_End
                      {
                        OFFSET 1.4531 -1.795 1.2713
                        CHANNELS 6 Xposition Yposition Zposition Zrotation Xrotation Yrotation
                        End Site
                        {
                          OFFSET 0.0145 -0.0179 0.0127
                        }
                      }
                    }
                  }
                  JOINT lMid1
                  {
                    OFFSET 5.6954 0.21 2.1184
                    CHANNELS 6 Xposition Yposition Zposition Zrotation Xrotation Yrotation
                    JOINT lMid2
                    {
                      OFFSET 3.9766 -1.54 2.3863
                      CHANNELS 6 Xposition Yposition Zposition Zrotation Xrotation Yrotation
                      JOINT lMid2_End
                      {
                        OFFSET 1.4042 -1.926 1.125
                        CHANNELS 6 Xposition Yposition Zposition Zrotation Xrotation Yrotation
                        End Site
                        {
                          OFFSET 0.014 -0.0193 0.0113
                        }
                      }
                    }
                  }
                }
                JOINT lCarpal2
                {
                  OFFSET 2.0956 0.66 -0.3894
                  CHANNELS 6 Xposition Yposition Zposition Zrotation Xrotation Yrotation
                  JOINT lRing1
                  {
                    OFFSET 5.0395 -0.09 2.4971
                    CHANNELS 6 Xposition Yposition Zposition Zrotation Xrotation Yrotation
                    JOINT lRing2
                    {
                      OFFSET 3.7921 -1.552 1.4806
                      CHANNELS 6 Xposition Yposition Zposition Zrotation Xrotation Yrotation
                      JOINT lRing2_End
                      {
                        OFFSET 1.4655 -1.808 0.9609
                        CHANNELS 6 Xposition Yposition Zposition Zrotation Xrotation Yrotation
                        End Site
                        {
                          OFFSET 0.0147 -0.0181 0.0096
                        }
                      }
                    }
                  }
                  JOINT lPinky1
                  {
                    OFFSET 4.9141 -1.269 0.3591
                    CHANNELS 6 Xposition Yposition Zposition Zrotation Xrotation Yrotation
                    JOINT lPinky2
                    {
                      OFFSET 3.1477 -1.685 0.8462
                      CHANNELS 6 Xposition Yposition Zposition Zrotation Xrotation Yrotation
                      JOINT lPinky2_End
                      {
                        OFFSET 0.8055 -1.585 0.7955
                        CHANNELS 6 Xposition Yposition Zposition Zrotation Xrotation Yrotation
                        End Site
                        {
                          OFFSET 0.0081 -0.0158 0.008
                        }
                      }
                    }
                  }
                }
              }
            }
          }
        }
        JOINT rCollar
        {
          OFFSET -1.7069 20.075 5.0056
          CHANNELS 6 Xposition Yposition Zposition Zrotation Xrotation Yrotation
          JOINT rShldr
          {
            OFFSET -13.6458 -0.047 -4.849
            CHANNELS 6 Xposition Yposition Zposition Zrotation Xrotation Yrotation
            JOINT rForeArm
            {
              OFFSET -28.3255 -0.9759 2.2888
              CHANNELS 6 Xposition Yposition Zposition Zrotation Xrotation Yrotation
              JOINT rHand
              {
                OFFSET -22.1583 -0.53 10.8316
                CHANNELS 6 Xposition Yposition Zposition Zrotation Xrotation Yrotation
                JOINT rThumb1
                {
                  OFFSET -0.786 0.112 2.5817
                  CHANNELS 6 Xposition Yposition Zposition Zrotation Xrotation Yrotation
                  JOINT rThumb2
                  {
                    OFFSET -0.3601 -0.878 4.2331
                    CHANNELS 6 Xposition Yposition Zposition Zrotation Xrotation Yrotation
                    JOINT rThumb2_End
                    {
                      OFFSET -1.8127 -1.216 2.2227
                      CHANNELS 6 Xposition Yposition Zposition Zrotation Xrotation Yrotation
                      End Site
                      {
                        OFFSET -0.0181 -0.0122 0.0222
                      }
                    }
                  }
                }
                JOINT rCarpal1
                {
                  OFFSET -0.9571 1.114 1.7695
                  CHANNELS 6 Xposition Yposition Zposition Zrotation Xrotation Yrotation
                  JOINT rIndex1
                  {
                    OFFSET -4.1246 0.487 4.1451
                    CHANNELS 6 Xposition Yposition Zposition Zrotation Xrotation Yrotation
                    JOINT rIndex2
                    {
                      OFFSET -3.4052 -1.454 2.7682
                      CHANNELS 6 Xposition Yposition Zposition Zrotation Xrotation Yrotation
                      JOINT rIndex2_End
                      {
                        OFFSET -1.4531 -1.795 1.2713
                        CHANNELS 6 Xposition Yposition Zposition Zrotation Xrotation Yrotation
                        End Site
                        {
                          OFFSET -0.0145 -0.018 0.0127
                        }
                      }
                    }
                  }
                  JOINT rMid1
                  {
                    OFFSET -5.6954 0.21 2.1184
                    CHANNELS 6 Xposition Yposition Zposition Zrotation Xrotation Yrotation
                    JOINT rMid2
                    {
                      OFFSET -3.9766 -1.54 2.3863
                      CHANNELS 6 Xposition Yposition Zposition Zrotation Xrotation Yrotation
                      JOINT rMid2_End
                      {
                        OFFSET -1.4042 -1.926 1.125
                        CHANNELS 6 Xposition Yposition Zposition Zrotation Xrotation Yrotation
                        End Site
                        {
                          OFFSET -0.014 -0.0193 0.0113
                        }
                      }
                    }
                  }
                }
                JOINT rCarpal2
                {
                  OFFSET -2.0956 0.66 -0.3894
                  CHANNELS 6 Xposition Yposition Zposition Zrotation Xrotation Yrotation
                  JOINT rRing1
                  {
                    OFFSET -5.0395 -0.09 2.4971
                    CHANNELS 6 Xposition Yposition Zposition Zrotation Xrotation Yrotation
                    JOINT rRing2
                    {
                      OFFSET -3.7921 -1.552 1.4806
                      CHANNELS 6 Xposition Yposition Zposition Zrotation Xrotation Yrotation
                      JOINT rRing2_End
                      {
                        OFFSET -1.4655 -1.808 0.9609
                        CHANNELS 6 Xposition Yposition Zposition Zrotation Xrotation Yrotation
                        End Site
                        {
                          OFFSET -0.0147 -0.0181 0.0096
                        }
                      }
                    }
                  }
                  JOINT rPinky1
                  {
                    OFFSET -4.9141 -1.269 0.3592
                    CHANNELS 6 Xposition Yposition Zposition Zrotation Xrotation Yrotation
                    JOINT rPinky2
                    {
                      OFFSET -3.1477 -1.685 0.8462
                      CHANNELS 6 Xposition Yposition Zposition Zrotation Xrotation Yrotation
                      JOINT rPinky2_End
                      {
                        OFFSET -0.8055 -1.585 0.7955
                        CHANNELS 6 Xposition Yposition Zposition Zrotation Xrotation Yrotation
                        End Site
                        {
                          OFFSET -0.0081 -0.0158 0.008
                        }
                      }
                    }
                  }
                }
              }
            }
          }
        }
      }
    }
  }
  JOINT lThigh
  {
    OFFSET 8.367 -8.2066 0.5982
    CHANNELS 6 Xposition Yposition Zposition Zrotation Xrotation Yrotation
    JOINT lShin
    {
      OFFSET 2.1923 -43.463 -0.4932
      CHANNELS 6 Xposition Yposition Zposition Zrotation Xrotation Yrotation
      JOINT lFoot
      {
        OFFSET 0.7333 -45.8593 -2.6451
        CHANNELS 6 Xposition Yposition Zposition Zrotation Xrotation Yrotation
        End Site
        {
          OFFSET 2.6618 -4.2699 12.3931
        }
      }
    }
  }
  JOINT rThigh
  {
    OFFSET -8.367 -8.2066 0.5982
    CHANNELS 6 Xposition Yposition Zposition Zrotation Xrotation Yrotation
    JOINT rShin
    {
      OFFSET -2.1923 -43.463 -0.4931
      CHANNELS 6 Xposition Yposition Zposition Zrotation Xrotation Yrotation
      JOINT rFoot
      {
        OFFSET -0.7333 -45.8593 -2.6451
        CHANNELS 6 Xposition Yposition Zposition Zrotation Xrotation Yrotation
        End Site
        {
          OFFSET -2.6618 -4.2699 12.3931
        }
      }
    }
  }
}
MOTION
Frames:	4
Frame Time:	0.0333333
0 90.174 2.4664 0 0 -0 0 -1.186 -1.5018 0 0 -0 0 9.964 0.2134 0 0 -0 0 13.134 -3.2573 0 0 -0 0 20.686 -1.6905 0 0 -0 0 7.238 -0.1237 0 0 -0 1.7069 20.075 5.0056 0 0 -0 13.6458 -0.047 -4.849 1.66051 0.0835086 5.75766 28.3255 -0.9759 2.2888 -0.0175111 0.895433 15.7816 22.1583 -0.53 10.8316 7.95139e-016 -1.98785e-016 -0 0.786 0.112 2.5817 5.46658e-016 -3.97569e-016 -0 0.3601 -0.878 4.2331 5.96354e-016 0 -0 1.8127 -1.216 2.2227 3.97569e-016 1.98785e-016 9.54166e-015 0.9571 1.114 1.7695 1.49089e-016 -3.97569e-016 -0 4.1246 0.487 4.1451 6.4605e-016 0 3.18055e-015 3.4052 -1.454 2.7682 5.96354e-016 0 3.18055e-015 1.4531 -1.795 1.2713 8.94531e-016 -1.98785e-016 6.36111e-015 5.6954 0.21 2.1184 6.4605e-016 0 3.18055e-015 3.9766 -1.54 2.3863 5.96354e-016 0 3.18055e-015 1.4042 -1.926 1.125 8.94531e-016 -1.98785e-016 6.36111e-015 2.0956 0.66 -0.3894 1.49089e-016 -3.97569e-016 -0 5.0395 -0.09 2.4971 6.4605e-016 0 3.18055e-015 3.7921 -1.552 1.4806 5.96354e-016 0 3.18055e-015 1.4655 -1.808 0.9609 8.94531e-016 -1.98785e-016 6.36111e-015 4.9141 -1.269 0.3591 6.4605e-016 0 3.18055e-015 3.1477 -1.685 0.8462 5.96354e-016 0 3.18055e-015 0.8055 -1.585 0.7955 8.94531e-016 -1.98785e-016 6.36111e-015 -1.7069 20.075 5.0056 0 0 -0 -13.6458 -0.047 -4.849 -1.4496 0.0636048 -5.0245 -28.3255 -0.9759 2.2888 -1.74811 1.20616 -16.8394 -22.1583 -0.53 10.8316 -1.19271e-015 1.98785e-016 -3.18055e-015 -0.786 0.112 2.5817 -3.97569e-016 1.98785e-016 -3.18055e-015 -0.3601 -0.878 4.2331 -2.98177e-016 1.98785e-016 -3.18055e-015 -1.8127 -1.216 2.2227 -2.98177e-016 3.97569e-016 -0 -0.9571 1.114 1.7695 4.96962e-016 0 -6.36111e-015 -4.1246 0.487 4.1451 -9.93923e-017 3.97569e-016 -0 -3.4052 -1.454 2.7682 -8.94531e-016 5.96354e-016 -0 -1.4531 -1.795 1.2713 -3.97569e-016 3.97569e-016 -0 -5.6954 0.21 2.1184 -9.93923e-017 3.97569e-016 -0 -3.9766 -1.54 2.3863 -8.94531e-016 5.96354e-016 -0 -1.4042 -1.926 1.125 -3.97569e-016 3.97569e-016 -0 -2.0956 0.66 -0.3894 4.96962e-016 0 -6.36111e-015 -5.0395 -0.09 2.4971 -9.93923e-017 3.97569e-016 -0 -3.7921 -1.552 1.4806 -8.94531e-016 5.96354e-016 -0 -1.4655 -1.808 0.9609 -3.97569e-016 3.97569e-016 -0 -4.9141 -1.269 0.3592 -9.93923e-017 3.97569e-016 -0 -3.1477 -1.685 0.8462 -8.94531e-016 5.96354e-016 -0 -0.8055 -1.585 0.7955 -3.97569e-016 3.97569e-016 -0 8.367 -8.2066 0.5982 -4.66115 -1.03232 0.120763 2.1923 -43.463 -0.4932 0.00990601 1.55097 0.177175 0.7333 -45.8593 -2.6451 4.65196 -0.54114 -0.255042 -8.367 -8.2066 0.5982 4.66115 -1.03222 -0.120763 -2.1923 -43.463 -0.4931 -0.00990459 1.5509 -0.177176 -0.7333 -45.8593 -2.6451 -4.65196 -0.541171 0.255041 
21.5471 89.4942 11.4021 -1.34824e-016 1.36889e-015 101.25 -1.77636e-015 -1.186 -1.5018 -0.885758 0.289472 -0.442209 0 9.964 0.2134 -1.76929 0.585737 -0.879904 0 13.134 -3.2573 -1.76929 0.585737 -0.879899 0 20.686 -1.6905 -1.87924 2.05689 0.100327 -3.55271e-015 7.238 -0.1237 -16.6329 -4.20306 -2.46346 1.7069 20.075 5.0056 -27.6907 -2.50177 -8.33486 13.6458 -0.047 -4.849 -6.98174 -0.58824 -5.55635 28.3255 -0.9759 2.2888 -0.596233 0.642359 1.29699 22.1583 -0.53 10.8316 -4.89959 3.33164 10.0838 0.786 0.112 2.5817 8.45297e-007 3.36336e-006 -8.54027e-006 0.3601 -0.878 4.2331 -3.18055e-015 -1.11319e-014 -7.15625e-015 1.8127 -1.216 2.2227 6.36111e-015 -1.03368e-014 -8.34896e-015 0.9571 1.114 1.7695 9.54166e-015 0 3.97569e-016 4.1246 0.487 4.1451 8.45297e-007 3.36336e-006 -8.54027e-006 3.4052 -1.454 2.7682 -3.18055e-015 -1.03368e-014 -7.15625e-015 1.4531 -1.795 1.2713 3.18055e-015 -9.54166e-015 -8.34896e-015 5.6954 0.21 2.1184 8.45297e-007 3.36336e-006 -8.54027e-006 3.9766 -1.54 2.3863 -3.18055e-015 -1.03368e-014 -7.15625e-015 1.4042 -1.926 1.125 3.18055e-015 -9.54166e-015 -8.34896e-015 2.0956 0.66 -0.3894 9.54166e-015 0 3.97569e-016 5.0395 -0.09 2.4971 8.45297e-007 3.36336e-006 -8.54027e-006 3.7921 -1.552 1.4806 -3.18055e-015 -1.03368e-014 -7.15625e-015 1.4655 -1.808 0.9609 3.18055e-015 -9.54166e-015 -8.34896e-015 4.9141 -1.269 0.3591 8.45297e-007 3.36336e-006 -8.54027e-006 3.1477 -1.685 0.8462 -3.18055e-015 -1.03368e-014 -7.15625e-015 0.8055 -1.585 0.7955 3.18055e-015 -9.54166e-015 -8.34896e-015 -1.7069 20.075 5.0056 28.0273 -2.66065 9.35342 -13.6458 -0.047 -4.849 9.19453 -0.240367 1.85569 -28.3255 -0.9759 2.2888 20.731 -0.102981 57.0007 -22.1583 -0.53 10.8316 10.3331 4.36345 -0.573875 -0.786 0.112 2.5817 2.19026e-007 -5.02571e-007 9.42012e-007 -0.3601 -0.878 4.2331 -2.19026e-007 5.02571e-007 -9.42012e-007 -1.8127 -1.216 2.2227 2.19026e-007 -5.02571e-007 9.42012e-007 -0.9571 1.114 1.7695 6.36111e-015 9.54166e-015 -2.38542e-015 -4.1246 0.487 4.1451 2.19026e-007 -5.02571e-007 9.42012e-007 -3.4052 -1.454 2.7682 -2.19026e-007 5.02571e-007 -9.42012e-007 -1.4531 -1.795 1.2713 2.19026e-007 -5.02571e-007 9.42012e-007 -5.6954 0.21 2.1184 2.19026e-007 -5.02571e-007 9.42012e-007 -3.9766 -1.54 2.3863 -2.19026e-007 5.02571e-007 -9.42012e-007 -1.4042 -1.926 1.125 2.19026e-007 -5.02571e-007 9.42012e-007 -2.0956 0.66 -0.3894 6.36111e-015 9.54166e-015 -2.38542e-015 -5.0395 -0.09 2.4971 2.19026e-007 -5.02571e-007 9.42012e-007 -3.7921 -1.552 1.4806 -2.19026e-007 5.02571e-007 -9.42012e-007 -1.4655 -1.808 0.9609 2.19026e-007 -5.02571e-007 9.42012e-007 -4.9141 -1.269 0.3592 2.19026e-007 -5.02571e-007 9.42012e-007 -3.1477 -1.685 0.8462 -2.19026e-007 5.02571e-007 -9.42012e-007 -0.8055 -1.585 0.7955 2.19026e-007 -5.02571e-007 9.42012e-007 8.367 -8.2066 0.5982 -4.14888 -2.80746 0.370088 2.1923 -43.463 -0.4932 -1.28667 7.05112 0.487802 0.7333 -45.8593 -2.6451 6.51274 -3.06751 -1.55953 -8.367 -8.2066 0.5982 4.14688 -2.81221 -0.371872 -2.1923 -43.463 -0.4931 1.28476 7.05582 -0.48994 -0.7333 -45.8593 -2.6451 -6.51475 -3.06777 1.55745 
33.8438 88.9537 18.529 -7.01671e-015 7.01671e-015 180 0 -1.186 -1.5018 -1.56711 0.503753 -0.794304 0 9.964 0.2134 -3.12728 1.029 -1.57463 7.10543e-015 13.134 -3.2573 -3.12728 1.02899 -1.57463 7.10543e-015 20.686 -1.6905 -3.34631 3.65691 0.178601 7.10543e-015 7.238 -0.1237 -29.7781 -7.45812 -4.39864 1.7069 20.075 5.0056 -49.7273 -4.34549 -14.847 13.6458 -0.047 -4.849 -13.8401 -1.07886 -14.3585 28.3255 -0.9759 2.2888 -1.08956 0.412047 -10.0573 22.1583 -0.53 10.8316 -9.03958 5.9407 18.0301 0.786 0.112 2.5817 -7.95139e-016 3.18055e-015 -6.36111e-015 0.3601 -0.878 4.2331 -7.95139e-016 3.18055e-015 -0 1.8127 -1.216 2.2227 8.82781e-031 7.95139e-015 -6.36111e-015 0.9571 1.114 1.7695 0 3.18055e-015 -0 4.1246 0.487 4.1451 -7.95139e-016 4.77083e-015 3.18055e-015 3.4052 -1.454 2.7682 -1.59028e-015 0 -0 1.4531 -1.795 1.2713 -2.38542e-015 -1.59028e-015 -3.18055e-015 5.6954 0.21 2.1184 -7.95139e-016 4.77083e-015 3.18055e-015 3.9766 -1.54 2.3863 -1.59028e-015 0 -0 1.4042 -1.926 1.125 -2.38542e-015 -1.59028e-015 -3.18055e-015 2.0956 0.66 -0.3894 0 3.18055e-015 -0 5.0395 -0.09 2.4971 -7.95139e-016 4.77083e-015 3.18055e-015 3.7921 -1.552 1.4806 -1.59028e-015 0 -0 1.4655 -1.808 0.9609 -2.38542e-015 -1.59028e-015 -3.18055e-015 4.9141 -1.269 0.3591 -7.95139e-016 4.77083e-015 3.18055e-015 3.1477 -1.685 0.8462 -1.59028e-015 0 -0 0.8055 -1.585 0.7955 -2.38542e-015 -1.59028e-015 -3.18055e-015 -1.7069 20.075 5.0056 50.4208 -4.59322 16.6652 -13.6458 -0.047 -4.849 17.5091 -0.472205 7.20723 -28.3255 -0.9759 2.2888 41.8647 -3.26127 113.667 -22.1583 -0.53 10.8316 18.4314 7.70581 -1.53916 -0.786 0.112 2.5817 -6.00843e-007 9.42425e-007 -1.2437e-006 -0.3601 -0.878 4.2331 1.11388e-006 5.2576e-007 -6.58966e-007 -1.8127 -1.216 2.2227 -3.18055e-015 -7.95139e-015 -3.18055e-015 -0.9571 1.114 1.7695 3.18055e-015 0 -6.36111e-015 -4.1246 0.487 4.1451 -6.00843e-007 9.42425e-007 -1.2437e-006 -3.4052 -1.454 2.7682 1.11388e-006 5.2576e-007 -6.58966e-007 -1.4531 -1.795 1.2713 4.77083e-015 -6.36111e-015 -3.18055e-015 -5.6954 0.21 2.1184 -6.00843e-007 9.42425e-007 -1.2437e-006 -3.9766 -1.54 2.3863 1.11388e-006 5.2576e-007 -6.58966e-007 -1.4042 -1.926 1.125 4.77083e-015 -6.36111e-015 -3.18055e-015 -2.0956 0.66 -0.3894 3.18055e-015 0 -6.36111e-015 -5.0395 -0.09 2.4971 -6.00843e-007 9.42425e-007 -1.2437e-006 -3.7921 -1.552 1.4806 1.11388e-006 5.2576e-007 -6.58966e-007 -1.4655 -1.808 0.9609 4.77083e-015 -6.36111e-015 -3.18055e-015 -4.9141 -1.269 0.3592 -6.00843e-007 9.42425e-007 -1.2437e-006 -3.1477 -1.685 0.8462 1.11388e-006 5.2576e-007 -6.58966e-007 -0.8055 -1.585 0.7955 4.77083e-015 -6.36111e-015 -3.18055e-015 8.367 -8.2066 0.5982 -3.74476 -4.20063 0.563077 2.1923 -43.463 -0.4932 -2.32435 11.35 0.728364 0.7333 -45.8593 -2.6451 7.87311 -5.0248 -2.58662 -8.367 -8.2066 0.5982 3.74132 -4.17382 -0.568032 -2.1923 -43.463 -0.4931 2.32076 11.3233 -0.729087 -0.7333 -45.8593 -2.6451 -7.87683 -5.0254 2.58294 
35.4443 88.8756 19.8923 -8.3856e-015 6.88189e-015 -168.75 7.10543e-015 -1.186 -1.5018 -1.66391 0.533566 -0.845165 0 9.964 0.2134 -3.31999 1.09139 -1.6746 -7.10543e-015 13.134 -3.2573 -3.31999 1.09139 -1.6746 7.10543e-015 20.686 -1.6905 -3.55574 3.88524 0.189804 -7.10543e-015 7.238 -0.1237 -31.5078 -7.92513 -4.65348 1.7069 20.075 5.0056 -52.9101 -4.59671 -15.7806 13.6458 -0.047 -4.849 -14.8291 -1.14506 -15.6162 28.3255 -0.9759 2.2888 -1.16364 0.382921 -12.0278 22.1583 -0.53 10.8316 -9.75104 6.31751 19.0519 0.786 0.112 2.5817 -7.95139e-016 1.59028e-015 -0 0.3601 -0.878 4.2331 -5.96354e-016 -1.59028e-015 6.36111e-015 1.8127 -1.216 2.2227 -3.57812e-015 7.95139e-016 6.36111e-015 0.9571 1.114 1.7695 9.93923e-016 -7.95139e-016 -3.18055e-015 4.1246 0.487 4.1451 -5.96354e-016 1.59028e-015 3.18055e-015 3.4052 -1.454 2.7682 -1.98785e-015 -1.59028e-015 -0 1.4531 -1.795 1.2713 -2.18663e-015 0 -0 5.6954 0.21 2.1184 -5.96354e-016 1.59028e-015 3.18055e-015 3.9766 -1.54 2.3863 -1.98785e-015 -1.59028e-015 -0 1.4042 -1.926 1.125 -2.18663e-015 0 -0 2.0956 0.66 -0.3894 9.93923e-016 -7.95139e-016 -3.18055e-015 5.0395 -0.09 2.4971 -5.96354e-016 1.59028e-015 3.18055e-015 3.7921 -1.552 1.4806 -1.98785e-015 -1.59028e-015 -0 1.4655 -1.808 0.9609 -2.18663e-015 0 -0 4.9141 -1.269 0.3591 -5.96354e-016 1.59028e-015 3.18055e-015 3.1477 -1.685 0.8462 -1.98785e-015 -1.59028e-015 -0 0.8055 -1.585 0.7955 -2.18663e-015 0 -0 -1.7069 20.075 5.0056 53.6608 -4.85299 17.7139 -13.6458 -0.047 -4.849 18.6994 -0.504752 7.97176 -28.3255 -0.9759 2.2888 45.1341 -3.60123 121.383 -22.1583 -0.53 10.8316 19.5962 8.17537 -1.71421 -0.786 0.112 2.5817 -1.58901e-030 9.54166e-015 9.54166e-015 -0.3601 -0.878 4.2331 0 6.36111e-015 -0 -1.8127 -1.216 2.2227 -3.18055e-015 3.18055e-015 3.18055e-015 -0.9571 1.114 1.7695 -1.05934e-030 6.36111e-015 9.54166e-015 -4.1246 0.487 4.1451 -3.18055e-015 9.54166e-015 1.27222e-014 -3.4052 -1.454 2.7682 3.18055e-015 6.36111e-015 9.54166e-015 -1.4531 -1.795 1.2713 -3.18055e-015 0 -0 -5.6954 0.21 2.1184 -3.18055e-015 9.54166e-015 1.27222e-014 -3.9766 -1.54 2.3863 3.18055e-015 6.36111e-015 9.54166e-015 -1.4042 -1.926 1.125 -3.18055e-015 0 -0 -2.0956 0.66 -0.3894 -1.05934e-030 6.36111e-015 9.54166e-015 -5.0395 -0.09 2.4971 -3.18055e-015 9.54166e-015 1.27222e-014 -3.7921 -1.552 1.4806 3.18055e-015 6.36111e-015 9.54166e-015 -1.4655 -1.808 0.9609 -3.18055e-015 0 -0 -4.9141 -1.269 0.3592 -3.18055e-015 9.54166e-015 1.27222e-014 -3.1477 -1.685 0.8462 3.18055e-015 6.36111e-015 9.54166e-015 -0.8055 -1.585 0.7955 -3.18055e-015 0 -0 8.367 -8.2066 0.5982 -3.68673 -4.39199 0.59106 2.1923 -43.463 -0.4932 -2.47452 11.9578 0.762173 0.7333 -45.8593 -2.6451 8.06113 -5.30443 -2.73447 -8.367 -8.2066 0.5982 3.68303 -4.36499 -0.596253 -2.1923 -43.463 -0.4931 2.47075 11.9308 -0.763002 -0.7333 -45.8593 -2.6451 -8.0651 -5.30496 2.73056 
